<?xml version="1.0" standalone="no"?>
<!DOCTYPE svg PUBLIC "-//W3C//DTD SVG 20010904//EN"
 "http://www.w3.org/TR/2001/REC-SVG-20010904/DTD/svg10.dtd">
<svg version="1.0" xmlns="http://www.w3.org/2000/svg"
 width="1280.000000pt" height="960.000000pt" viewBox="0 0 1280.000000 960.000000"
 preserveAspectRatio="xMidYMid meet">
<g transform="translate(0.000000,960.000000) scale(0.100000,-0.100000)"
fill="#ff9800" stroke="none">
<path d="M5056 8548 c-3 -29 -6 -278 -6 -553 0 -437 -2 -503 -16 -523 l-15
-22 -683 0 -684 0 -6 -22 c-3 -13 -6 -182 -6 -376 l0 -352 27 -11 c16 -6 144
-11 303 -13 252 -2 280 -4 342 -24 132 -44 216 -145 238 -288 7 -47 10 -556 8
-1614 l-3 -1545 -23 -50 c-28 -61 -55 -90 -107 -118 -38 -21 -55 -22 -335 -25
-162 -2 -298 -7 -303 -11 -9 -9 -137 -762 -137 -807 0 -27 4 -32 31 -38 17 -3
253 -6 523 -7 629 -1 799 -8 823 -32 17 -16 18 -57 23 -562 4 -427 8 -547 18
-557 17 -17 634 -25 675 -9 l26 10 3 542 3 541 28 24 28 24 207 -6 c114 -3
217 -7 230 -10 50 -10 52 -31 52 -594 l0 -520 27 -11 c41 -16 658 -8 675 9 10
10 14 127 16 557 l3 544 25 20 c14 11 47 22 77 25 468 48 680 84 902 151 662
200 1005 593 1090 1248 20 155 20 426 -1 564 -66 446 -331 751 -794 917 -92
33 -118 53 -103 80 4 8 49 45 98 83 218 169 332 355 391 643 24 115 24 386 0
525 -55 322 -215 570 -483 748 -256 171 -584 275 -1050 332 -95 12 -130 20
-139 33 -11 13 -13 121 -14 513 0 273 -3 524 -6 558 l-7 61 -353 0 -353 0 -3
-539 c-3 -514 -4 -540 -22 -560 -18 -20 -28 -21 -257 -21 l-238 0 -16 30 c-13
25 -15 104 -15 560 l0 530 -354 0 -353 0 -7 -52z m1549 -1942 c239 -32 425
-94 560 -185 72 -49 147 -137 185 -216 46 -96 60 -159 60 -268 -1 -366 -261
-576 -816 -658 -106 -15 -212 -22 -453 -26 l-314 -6 -18 24 c-18 23 -19 58
-19 660 0 624 0 637 20 662 11 14 33 28 48 31 60 10 640 -3 747 -18z m45
-2097 c538 -42 890 -201 1022 -462 115 -228 81 -501 -84 -682 -165 -180 -461
-291 -910 -340 -148 -17 -794 -33 -840 -22 -13 4 -30 18 -36 32 -9 19 -12 213
-12 729 0 678 1 705 19 727 18 23 28 24 163 30 170 8 503 2 678 -12z"/>
</g>
</svg>
